<svg width="174" height="148" viewBox="0 0 174 148" fill="none" xmlns="http://www.w3.org/2000/svg">
<path fill-rule="evenodd" clip-rule="evenodd" d="M66.6617 0.300489C73.0777 -0.119358 79.5846 2.40736 86.0256 4.04334C104.659 8.7762 123.595 6.11331 142.453 8.31739C151.785 9.40814 161.91 12.173 168.184 19.4033C172.55 24.4352 174.4 31.262 172.991 37.1401C170.33 48.2377 158.134 53.3769 148.801 59.9524C130.991 72.5006 121.618 93.4265 117.445 114.873C116.533 119.563 115.824 124.357 113.954 128.688C109.609 138.753 99.1622 145.265 87.6952 147.057C76.2281 148.848 63.8896 146.343 52.5411 141.76C38.6318 136.142 25.8128 127.379 15.5375 116.464C10.3304 110.933 5.71018 104.753 3.07656 97.9144C0.442942 91.0755 -0.0532278 83.5013 2.80656 77.3286C7.11301 68.0333 17.861 63.5516 24.4829 55.7537C27.4295 52.2838 29.5211 48.1951 31.5573 44.1212C34.5785 38.0767 37.5252 31.9925 40.3968 25.87C43.103 20.1002 45.783 14.232 49.911 9.38668C54.0389 4.54137 59.8495 0.746267 66.6617 0.300489Z" fill="#43DFA8"/>
</svg>
