<svg width="214" height="105" viewBox="0 0 214 105" fill="none" xmlns="http://www.w3.org/2000/svg">
<path fill-rule="evenodd" clip-rule="evenodd" d="M80.756 103.685C116.333 111.574 133.644 81.2979 164.127 83.6013C180.814 84.8622 214.074 91.253 214 44.6996C213.814 14.6448 178.684 7.11865 142.459 22.532C131.799 25.8194 123.383 24.8006 114.245 21.5342C105.107 18.2679 93.3553 3.6862 71.206 0.686374C4.55173 -8.34109 -52.4796 74.1387 80.756 103.685Z" fill="#18D375"/>
<path fill-rule="evenodd" clip-rule="evenodd" d="M80.756 103.685C116.333 111.574 133.644 81.2979 164.127 83.6013C180.814 84.8622 214.074 91.253 214 44.6996C213.814 14.6448 178.684 7.11865 142.459 22.532C131.799 25.8194 123.383 24.8006 114.245 21.5342C105.107 18.2679 93.3553 3.6862 71.206 0.686374C4.55173 -8.34109 -52.4796 74.1387 80.756 103.685Z" fill="#18D375"/>
</svg>
